<?xml version="1.0" encoding="UTF-8"?>
<svg version="1.1" xmlns="http://www.w3.org/2000/svg" width="233" height="217">
<path d="M0 0 C76.89 0 153.78 0 233 0 C233 71.61 233 143.22 233 217 C156.11 217 79.22 217 0 217 C0 145.39 0 73.78 0 0 Z " fill="#D35230" transform="translate(0,0)"/>
<path d="M0 0 C76.89 0 153.78 0 233 0 C233 35.64 233 71.28 233 108 C197.03 108 161.06 108 124 108 C123.67 90.18 123.34 72.36 123 54 C118.33906307 49.93259095 118.33906307 49.93259095 113.1736908 49.49206543 C112.23021286 49.48078613 111.28673492 49.46950684 110.31466675 49.45788574 C108.78013351 49.47003113 108.78013351 49.47003113 107.21459961 49.48242188 C106.12789474 49.4754126 105.04118988 49.46840332 103.92155457 49.46118164 C100.33155729 49.44358455 96.74234897 49.45523041 93.15234375 49.46875 C90.65800322 49.4660558 88.16366371 49.46217397 85.66932678 49.45715332 C79.77384898 49.4505009 73.87865745 49.46449498 67.98322159 49.4857564 C62.61350659 49.50291715 57.24417182 49.49078355 51.87448114 49.47121 C46.05932504 49.45086268 40.24437398 49.45302614 34.42920113 49.46473694 C31.95681241 49.46740815 29.48440994 49.46412067 27.01203728 49.45481873 C23.55965328 49.4446795 20.10831202 49.46011844 16.65600586 49.48242188 C15.63095947 49.47432495 14.60591309 49.46622803 13.54980469 49.45788574 C8.11650677 49.42679066 8.11650677 49.42679066 3.45899963 51.90734863 C2.97752975 52.59792358 2.49605988 53.28849854 2 54 C1.34 54.66 0.68 55.32 0 56 C0 37.52 0 19.04 0 0 Z " fill="#FE8F6A" transform="translate(0,0)"/>
<path d="M0 0 C0.93646362 -0.00860046 1.87292725 -0.01720093 2.83776855 -0.02606201 C3.86843445 -0.03032196 4.89910034 -0.03458191 5.96099854 -0.03897095 C7.04405273 -0.04714844 8.12710693 -0.05532593 9.24298096 -0.06375122 C12.83941082 -0.0886333 16.43580114 -0.10512848 20.0322876 -0.11953735 C21.87177349 -0.12752287 21.87177349 -0.12752287 23.74842072 -0.13566971 C29.56938988 -0.1596537 35.39034269 -0.17889349 41.21134734 -0.19169176 C47.25893371 -0.20525237 53.30615049 -0.23156193 59.35357666 -0.27822876 C65.83981994 -0.32747387 72.32571915 -0.35230896 78.81214142 -0.35942459 C81.28570558 -0.36614867 83.75926173 -0.38140049 86.23271942 -0.4053154 C89.69463778 -0.43687743 93.15522451 -0.4370164 96.61724854 -0.42959595 C97.6398175 -0.44600128 98.66238647 -0.46240662 99.71594238 -0.47930908 C104.18839327 -0.44005371 107.54226948 -0.36446541 111.18276978 2.41351318 C113.54940621 5.15563073 114.29973517 6.06305505 114.32086182 9.58358765 C114.34041931 10.44414261 114.35997681 11.30469757 114.38012695 12.19132996 C114.37104309 13.12772812 114.36195923 14.06412628 114.3526001 15.02890015 C114.36639709 16.03406174 114.38019409 17.03922333 114.39440918 18.07484436 C114.43278673 21.4349643 114.42815881 24.79358638 114.4229126 28.15390015 C114.439992 30.51565284 114.45941167 32.87738961 114.48101807 35.23910522 C114.52626178 41.07258111 114.54123185 46.90570041 114.54250145 52.73931026 C114.54442763 57.96401145 114.56141483 63.18853157 114.58502197 68.41317749 C114.62724866 77.88923493 114.65546543 87.36526514 114.6729126 96.84140015 C114.6744912 97.61449524 114.67606979 98.38759033 114.67769623 99.18411255 C114.68619726 103.65427982 114.68880768 108.1243811 114.68260956 112.59455299 C114.68136365 113.96383427 114.68178774 115.33311819 114.68396759 116.7023983 C114.68651915 118.58035618 114.68209485 120.45831969 114.67730713 122.33627319 C114.67651154 123.39251389 114.67571594 124.44875458 114.67489624 125.53700256 C114.51678445 128.79539355 113.89723826 130.69240476 111.92468262 133.2983551 C108.71342367 135.8053859 106.5711686 135.72712119 102.51959229 135.84262085 C101.81984787 135.86741516 101.12010345 135.89220947 100.39915466 135.91775513 C98.08941236 135.9930259 95.78037134 136.03835287 93.4697876 136.0796814 C91.85798203 136.11754278 90.24618602 136.15581287 88.63439941 136.19447327 C85.25525492 136.2698788 81.87626872 136.32835497 78.49664307 136.37728882 C74.17970894 136.44282757 69.86681356 136.56834459 65.55176926 136.70917988 C62.2216375 136.80800494 58.89170393 136.8653089 55.56046295 136.91136742 C53.97023061 136.9400292 52.3801901 136.98353059 50.79079437 137.04253578 C38.43041847 137.47701468 38.43041847 137.47701468 33.8192749 134.23608398 C30.7069419 130.8250464 28.5272949 127.19073105 26.3604126 123.13827515 C24.64278195 120.64799794 23.82267373 120.21288952 20.80963135 119.56600952 C17.37039305 119.34565114 13.99330203 119.3321212 10.5479126 119.40390015 C8.21464218 119.42180902 5.88123819 119.42747967 3.5479126 119.41952515 C2.0010376 119.44707886 2.0010376 119.44707886 0.4229126 119.47518921 C-3.87172681 118.99525159 -6.3493382 117.50641782 -9.07136536 114.16786194 C-11.06372912 109.81875468 -10.87867642 105.86587176 -10.85614014 101.13461304 C-10.86300339 100.12914932 -10.86986664 99.12368561 -10.87693787 98.0877533 C-10.89522502 94.7672103 -10.89136551 91.44713891 -10.88568115 88.1265564 C-10.89024202 85.81636908 -10.89554731 83.50618312 -10.90156555 81.19599915 C-10.91050045 76.35484301 -10.90806911 71.5138518 -10.89813232 66.67269897 C-10.88664245 60.47070999 -10.90685305 54.26929033 -10.93604946 48.06737614 C-10.95440094 43.29668057 -10.95412105 38.5261217 -10.94841194 33.7553997 C-10.9482586 31.4688684 -10.95431362 29.1823279 -10.96670341 26.89583015 C-10.98159114 23.69771802 -10.97095177 20.50066104 -10.95379639 17.30258179 C-10.96346436 16.35953186 -10.97313232 15.41648193 -10.98309326 14.44485474 C-10.91888731 8.72493626 -10.22575586 5.53060087 -6.4520874 1.15390015 C-4.08538017 -0.02945347 -2.64066615 0.01802617 0 0 Z " fill="#C23E1E" transform="translate(10.45208740234375,48.846099853515625)"/>
<path d="M0 0 C41.25 0 82.5 0 125 0 C125 35.64 125 71.28 125 108 C124.67 108 124.34 108 124 108 C123.99857498 107.33236633 123.99714996 106.66473267 123.99568176 105.97686768 C123.97600911 99.03363864 123.92178726 92.09129163 123.84741211 85.1484375 C123.82420208 82.55670497 123.80982941 79.96487773 123.80444336 77.37304688 C123.79517636 73.64913697 123.75423086 69.92672324 123.70703125 66.203125 C123.7109639 65.04258606 123.71489655 63.88204712 123.71894836 62.68634033 C123.69930527 61.60552185 123.67966217 60.52470337 123.65942383 59.41113281 C123.64943108 57.98550018 123.64943108 57.98550018 123.63923645 56.53106689 C123.15271421 53.85869073 123.15271421 53.85869073 121.13287354 51.69415283 C116.52157633 49.20051811 112.38113699 49.44153023 107.21459961 49.48242188 C106.12789474 49.4754126 105.04118988 49.46840332 103.92155457 49.46118164 C100.33155729 49.44358455 96.74234897 49.45523041 93.15234375 49.46875 C90.65800322 49.4660558 88.16366371 49.46217397 85.66932678 49.45715332 C79.77384898 49.4505009 73.87865745 49.46449498 67.98322159 49.4857564 C62.61350659 49.50291715 57.24417182 49.49078355 51.87448114 49.47121 C46.05932504 49.45086268 40.24437398 49.45302614 34.42920113 49.46473694 C31.95681241 49.46740815 29.48440994 49.46412067 27.01203728 49.45481873 C23.55965328 49.4446795 20.10831202 49.46011844 16.65600586 49.48242188 C15.63095947 49.47432495 14.60591309 49.46622803 13.54980469 49.45788574 C8.11650677 49.42679066 8.11650677 49.42679066 3.45899963 51.90734863 C2.97752975 52.59792358 2.49605988 53.28849854 2 54 C1.34 54.66 0.68 55.32 0 56 C0 37.52 0 19.04 0 0 Z " fill="#EC6B47" transform="translate(0,0)"/>
<path d="M0 0 C0.33 0 0.66 0 1 0 C1 32.67 1 65.34 1 99 C-75.89 99 -152.78 99 -232 99 C-232 80.19 -232 61.38 -232 42 C-230.68 43.65 -229.36 45.3 -228 47 C-224.74963822 49.26275668 -222.26232116 49.12901731 -218.37890625 48.8515625 C-200.95325944 48.14345318 -200.95325944 48.14345318 -195.67138672 51.46386719 C-191.82099775 55.14531948 -189.06064677 59.53235925 -186.28662109 64.05029297 C-174.89766352 81.30877782 -150.19555745 91.07911287 -131 96 C-101.13074703 101.08201162 -70.19715835 96.17490822 -45 79 C-23.61988076 63.11846136 -10.57333986 43.39296306 -3 18 C-2.76410156 17.21753906 -2.52820313 16.43507812 -2.28515625 15.62890625 C-0.87025366 10.49601146 -0.41181777 5.28860717 0 0 Z " fill="#FEFDFD" transform="translate(232,118)"/>
<path d="M0 0 C38.61 0 77.22 0 117 0 C117 0.33 117 0.66 117 1 C116.16359985 1.09704224 116.16359985 1.09704224 115.31030273 1.19604492 C84.83116366 4.84352279 60.05354574 16.47734154 40.0078125 40.375 C37.78337599 43.26996044 36.16193395 45.51419814 35 49 C33.71367676 49.01401855 33.71367676 49.01401855 32.40136719 49.02832031 C29.21027321 49.07241291 26.02013244 49.13406056 22.82958984 49.20751953 C21.45048349 49.23569099 20.07121682 49.25692472 18.69189453 49.27099609 C16.70577051 49.29247545 14.72000091 49.34123132 12.734375 49.390625 C11.54038086 49.41157227 10.34638672 49.43251953 9.11621094 49.45410156 C5.42131778 50.10137366 4.33365173 51.14211246 2 54 C1.34 54.66 0.68 55.32 0 56 C0 37.52 0 19.04 0 0 Z " fill="#FEFDFD" transform="translate(0,0)"/>
<path d="M0 0 C32.01 0 64.02 0 97 0 C97 31.68 97 63.36 97 96 C96.67 96 96.34 96 96 96 C95.85304688 95.030625 95.70609375 94.06125 95.5546875 93.0625 C93.88826965 82.81874163 91.11889665 73.51917651 87 64 C86.70996094 63.32404785 86.41992188 62.6480957 86.12109375 61.95166016 C77.48982309 42.27441812 61.83552366 25.35809135 43 15 C42.17113281 14.49726563 41.34226563 13.99453125 40.48828125 13.4765625 C28.01981136 6.13339787 14.11735469 3.3090886 0 1 C0 0.67 0 0.34 0 0 Z " fill="#FEFDFC" transform="translate(136,0)"/>
<path d="M0 0 C36.51724138 0 36.51724138 0 45.9375 5.8125 C51.14053833 11.33087399 51.49509009 16.87501061 51.28515625 24.1953125 C50.6552954 30.39038219 47.59591185 34.0308034 43 38 C37.90335649 41.41303319 33.5729344 43.13900631 27.453125 43.09765625 C26.69161133 43.09515869 25.93009766 43.09266113 25.14550781 43.09008789 C24.18999023 43.08098389 23.23447266 43.07187988 22.25 43.0625 C19.1975 43.041875 16.145 43.02125 13 43 C13 50.59 13 58.18 13 66 C8.71 66 4.42 66 0 66 C0 44.22 0 22.44 0 0 Z " fill="#FBFAF8" transform="translate(34,75)"/>
<path d="M0 0 C3.94210066 -0.4692977 5.71640831 -0.17068952 9.16064453 1.90234375 C11.80523802 4.24682912 12.46017289 5.92898123 12.77294922 9.4296875 C12.81419043 11.24435392 12.82229503 13.0599504 12.8046875 14.875 C12.8184845 15.88016159 12.83228149 16.88532318 12.84649658 17.92094421 C12.88487413 21.28106415 12.88024621 24.63968624 12.875 28 C12.89207941 30.36175269 12.91149908 32.72348947 12.93310547 35.08520508 C12.97834918 40.91868097 12.99331925 46.75180026 12.99458885 52.58541012 C12.99651503 57.8101113 13.01350224 63.03463142 13.03710938 68.25927734 C13.07933607 77.73533478 13.10755283 87.21136499 13.125 96.6875 C13.1265786 97.46059509 13.1281572 98.23369019 13.12978363 99.0302124 C13.13828466 103.50037967 13.14089508 107.97048096 13.13469696 112.44065285 C13.13345105 113.80993412 13.13387514 115.17921805 13.13605499 116.54849815 C13.13860655 118.42645603 13.13418226 120.30441954 13.12939453 122.18237305 C13.12859894 123.23861374 13.12780334 124.29485443 13.12698364 125.38310242 C12.96887185 128.64149341 12.34932566 130.53850461 10.37677002 133.14445496 C7.16551107 135.65148575 5.02325601 135.57322104 0.97167969 135.6887207 C0.27193527 135.71351501 -0.42780914 135.73830933 -1.14875793 135.76385498 C-3.45850023 135.83912575 -5.76754126 135.88445272 -8.078125 135.92578125 C-9.68993057 135.96364264 -11.30172658 136.00191272 -12.91351318 136.04057312 C-16.29265768 136.11597866 -19.67164388 136.17445483 -23.05126953 136.22338867 C-27.36820366 136.28892742 -31.68109903 136.41444445 -35.99614334 136.55527973 C-39.3262751 136.65410479 -42.65620866 136.71140875 -45.98744965 136.75746727 C-47.57768198 136.78612905 -49.1677225 136.82963044 -50.75711823 136.88863564 C-63.04644865 137.32061722 -63.04644865 137.32061722 -67.62976074 134.22225952 C-69.76446225 131.90780121 -71.3646467 129.69058002 -73 127 C-75.475 123.04 -75.475 123.04 -78 119 C-51.6 118.67 -25.2 118.34 2 118 C2.33 117.34 2.66 116.68 3 116 C3.66 116 4.32 116 5 116 C5.82098963 113.12048111 6.12879986 110.55700208 6.14044189 107.56642151 C6.14615204 106.68466248 6.15186218 105.80290344 6.15774536 104.89442444 C6.15886322 103.93483322 6.15998108 102.975242 6.16113281 101.98657227 C6.16609772 100.96989471 6.17106262 99.95321716 6.17617798 98.9057312 C6.19078307 95.54261601 6.19759805 92.17954795 6.203125 88.81640625 C6.20887678 86.47997537 6.21463451 84.1435445 6.22039795 81.80711365 C6.23090251 76.90876038 6.23674909 72.0104235 6.24023438 67.11206055 C6.24572509 60.83271508 6.26976791 54.55358579 6.29820633 48.2743082 C6.31681817 43.44877994 6.32203749 38.62330397 6.32357025 33.79774284 C6.3265994 31.48247022 6.3346367 29.16719857 6.34775543 26.85196114 C6.36478896 23.61541324 6.36294234 20.37939666 6.35644531 17.14282227 C6.3656601 16.18525528 6.37487488 15.22768829 6.3843689 14.24110413 C6.35366696 9.36454816 6.26648697 5.90567464 3 2 C2.01 1.34 1.02 0.68 0 0 Z " fill="#7B2F18" transform="translate(112,49)"/>
<path d="M0 0 C33 0 33 0 38 2 C38.9375 3.875 38.9375 3.875 39 6 C38.25 8.1875 38.25 8.1875 37 10 C36.01 10.33 35.02 10.66 34 11 C33.67 11.66 33.34 12.32 33 13 C33.99 13.33 34.98 13.66 36 14 C37.85243916 17.70487832 37.4585162 21.95614188 37 26 C34.66835298 30.14515026 32.47047326 31.62727316 28 33 C25.19006055 33.13760722 22.48998076 33.19011573 19.6875 33.125 C18.94693359 33.11597656 18.20636719 33.10695312 17.44335938 33.09765625 C15.62876533 33.07424213 13.81433929 33.03837615 12 33 C11.67 31.68 11.34 30.36 11 29 C10.67 29.66 10.34 30.32 10 31 C9.01 31.33 8.02 31.66 7 32 C6.505 34.475 6.505 34.475 6 37 C5.67 37 5.34 37 5 37 C4.97531143 32.4793335 4.95714551 27.9587061 4.94506836 23.43798828 C4.94003448 21.89956987 4.93320692 20.36115625 4.92456055 18.82275391 C4.91245361 16.61359474 4.90676231 14.40449874 4.90234375 12.1953125 C4.89718246 11.50567413 4.89202118 10.81603577 4.88670349 10.10549927 C4.88612829 5.22774341 4.88612829 5.22774341 6 3 C5.34 3 4.68 3 4 3 C3.67 3.66 3.34 4.32 3 5 C2.67 4.67 2.34 4.34 2 4 C1.67 24.46 1.34 44.92 1 66 C0.67 66 0.34 66 0 66 C0 44.22 0 22.44 0 0 Z " fill="#FAF1EC" transform="translate(34,75)"/>
<path d="M0 0 C0.33 0 0.66 0 1 0 C1.02315598 8.9446663 1.04093173 17.88932231 1.05181217 26.83401203 C1.05703386 30.9872525 1.06411859 35.14047249 1.07543945 39.29370117 C1.08629366 43.30073943 1.09228223 47.30775797 1.09487724 51.3148098 C1.09672691 52.84464008 1.10033877 54.37446926 1.10573006 55.90429115 C1.11297407 58.04469777 1.11398952 60.18502257 1.11352539 62.32543945 C1.115746 63.54455521 1.11796661 64.76367096 1.12025452 66.01972961 C0.98111336 69.46806791 0.46434199 71.38655613 -1.62322998 74.14445496 C-4.83448893 76.65148575 -6.97674399 76.57322104 -11.02832031 76.6887207 C-11.72806473 76.71351501 -12.42780914 76.73830933 -13.14875793 76.76385498 C-15.45850023 76.83912575 -17.76754126 76.88445272 -20.078125 76.92578125 C-21.68993057 76.96364264 -23.30172658 77.00191272 -24.91351318 77.04057312 C-28.29265768 77.11597866 -31.67164388 77.17445483 -35.05126953 77.22338867 C-39.36820366 77.28892742 -43.68109903 77.41444445 -47.99614334 77.55527973 C-51.3262751 77.65410479 -54.65620866 77.71140875 -57.98744965 77.75746727 C-59.57768198 77.78612905 -61.1677225 77.82963044 -62.75711823 77.88863564 C-75.19350807 78.3257865 -75.19350807 78.3257865 -79.80554199 74.94100952 C-81.79729444 72.71862479 -83.46503432 70.55450668 -85 68 C-84.67 67.01 -84.34 66.02 -84 65 C-57.6 65 -31.2 65 -4 65 C-3.34 63.35 -2.68 61.7 -2 60 C-1.34 60 -0.68 60 0 60 C0 40.2 0 20.4 0 0 Z " fill="#9B3B22" transform="translate(124,108)"/>
<path d="M0 0 C2.70913011 -0.26185433 5.18342634 -0.32961577 7.89038086 -0.26464844 C8.70515396 -0.25693924 9.51992706 -0.24923004 10.35939026 -0.24128723 C13.06161222 -0.21193492 15.76296075 -0.16090523 18.46484375 -0.109375 C20.33808348 -0.08388288 22.21133982 -0.05958594 24.08460999 -0.03643799 C28.01485771 0.01519301 31.94478025 0.07671241 35.87475586 0.14599609 C40.91653963 0.23474808 45.95837008 0.30625649 51.00051022 0.37128067 C55.80121584 0.43403252 60.60177272 0.50592043 65.40234375 0.578125 C66.32143965 0.59107857 67.24053555 0.60403214 68.18748283 0.61737823 C70.78517785 0.65553798 73.3826731 0.70024752 75.98022461 0.74707031 C77.13752579 0.76277321 77.13752579 0.76277321 78.31820679 0.77879333 C81.46343233 0.84153724 83.99476489 0.99825496 87 2 C87 23.12 87 44.24 87 66 C86.67 66 86.34 66 86 66 C85.99857498 65.33236633 85.99714996 64.66473267 85.99568176 63.97686768 C85.97600911 57.03363864 85.92178726 50.09129163 85.84741211 43.1484375 C85.82420208 40.55670497 85.80982941 37.96487773 85.80444336 35.37304688 C85.79517636 31.64913697 85.75423086 27.92672324 85.70703125 24.203125 C85.7109639 23.04258606 85.71489655 21.88204712 85.71894836 20.68634033 C85.69930527 19.60552185 85.67966217 18.52470337 85.65942383 17.41113281 C85.64943108 15.98550018 85.64943108 15.98550018 85.63923645 14.53106689 C85.16227877 11.83032443 85.16227877 11.83032443 82.97045898 9.69592285 C79.20970944 7.54879976 76.0290361 7.42612893 71.81323242 7.45410156 C71.00295593 7.44376389 70.19267944 7.43342621 69.35784912 7.42277527 C66.69018558 7.39337079 64.02328154 7.39184862 61.35546875 7.390625 C59.50171972 7.37564173 57.64798402 7.35891428 55.79426575 7.34051514 C50.92318098 7.29684579 46.0522763 7.27684344 41.18103027 7.26177979 C36.20716709 7.24220723 31.23349834 7.20023736 26.25976562 7.16015625 C16.50657039 7.08485863 6.75341869 7.03456441 -3 7 C-2.38722388 4.03824877 -1.74627478 2.61941217 0 0 Z " fill="#D15E3D" transform="translate(38,42)"/>
<path d="M0 0 C15.36842105 -0.44331984 15.36842105 -0.44331984 22 3 C24.83160532 7.24740799 24.64522317 11.01346043 24 16 C21.66787763 20.14599532 19.46529253 21.61379655 15 23 C12.34490385 23.13756975 9.8323525 23.19029073 7.1875 23.125 C4.815625 23.08375 2.44375 23.0425 0 23 C0 15.41 0 7.82 0 0 Z " fill="#C74828" transform="translate(47,85)"/>
<path d="M0 0 C0.33 0 0.66 0 1 0 C1.02315598 8.9446663 1.04093173 17.88932231 1.05181217 26.83401203 C1.05703386 30.9872525 1.06411859 35.14047249 1.07543945 39.29370117 C1.08629366 43.30073943 1.09228223 47.30775797 1.09487724 51.3148098 C1.09672691 52.84464008 1.10033877 54.37446926 1.10573006 55.90429115 C1.11297407 58.04469777 1.11398952 60.18502257 1.11352539 62.32543945 C1.115746 63.54455521 1.11796661 64.76367096 1.12025452 66.01972961 C0.9811674 69.46672866 0.46158397 71.38757481 -1.6192627 74.14842224 C-4.85628338 76.66595977 -7.01393833 76.54865474 -11.09179688 76.62524414 C-11.79796646 76.64361328 -12.50413605 76.66198242 -13.23170471 76.6809082 C-15.56080546 76.73579219 -17.8891362 76.76164072 -20.21875 76.78515625 C-21.84014586 76.81284381 -23.46152478 76.8415397 -25.08288574 76.87120056 C-28.47888248 76.92853882 -31.87467513 76.97104972 -35.27099609 77.00366211 C-39.62314024 77.04700955 -43.97339986 77.1310735 -48.32466888 77.22675419 C-51.67193981 77.29519155 -55.0192154 77.34003234 -58.36695862 77.3779583 C-59.97144254 77.39935633 -61.57584208 77.42856007 -63.18003845 77.46571541 C-65.42326412 77.51452484 -67.66451095 77.53105124 -69.90820312 77.53930664 C-71.18409302 77.55610977 -72.45998291 77.5729129 -73.77453613 77.59022522 C-77 77 -77 77 -79.4432373 74.46629333 C-79.95696899 73.65241653 -80.47070068 72.83853973 -81 72 C-77.24938356 69.49958904 -75.29016234 69.75223839 -70.80639648 69.75708008 C-70.0776532 69.75518173 -69.34890991 69.75328339 -68.5980835 69.75132751 C-66.18897752 69.74762239 -63.78017293 69.75831936 -61.37109375 69.76953125 C-59.69865454 69.77072323 -58.02621464 69.77117617 -56.35377502 69.7709198 C-52.84917 69.77248417 -49.3446672 69.78077085 -45.84008789 69.79418945 C-41.34175843 69.81119233 -36.8435412 69.81500338 -32.34518337 69.81424427 C-28.89230777 69.81451581 -25.43945684 69.81999431 -21.98658943 69.82724571 C-20.3275477 69.83043359 -18.66850317 69.83240007 -17.00945854 69.83313942 C-14.69432662 69.83530098 -12.37931515 69.84404081 -10.06420898 69.85473633 C-8.08589333 69.86045403 -8.08589333 69.86045403 -6.06761169 69.86628723 C-3 70 -3 70 -1 71 C-0.67 47.57 -0.34 24.14 0 0 Z " fill="#A74026" transform="translate(124,108)"/>
<path d="M0 0 C0.6875 1.6875 0.6875 1.6875 1 4 C-0.375 6.625 -0.375 6.625 -2 9 C-2.33 9.66 -2.66 10.32 -3 11 C-13.10021625 11.26965424 -23.20061971 11.50669017 -33.30256271 11.70202446 C-37.99327913 11.79375251 -42.68318655 11.89673218 -47.37304688 12.02539062 C-51.89852275 12.14912605 -56.42373739 12.24335097 -60.95029449 12.31708145 C-62.67770191 12.35041512 -64.40493738 12.39440629 -66.13179779 12.44918442 C-68.55018917 12.52408329 -70.96641857 12.5611464 -73.38574219 12.58935547 C-74.10071869 12.62027786 -74.81569519 12.65120026 -75.55233765 12.68305969 C-77.55780029 12.68356323 -77.55780029 12.68356323 -81 12 C-83.47589111 8.96316528 -83.47589111 8.96316528 -85 6 C-83.51328545 5.99786247 -83.51328545 5.99786247 -81.99653625 5.99568176 C-72.65311771 5.97900781 -63.31013448 5.93622222 -53.9669466 5.86790943 C-49.16352922 5.83362739 -44.36043028 5.80852757 -39.55688477 5.80444336 C-34.92059119 5.800163 -30.28501614 5.77172233 -25.64894676 5.72656822 C-23.88078179 5.71358478 -22.11253087 5.70928855 -20.34432411 5.71384621 C-17.86588719 5.71874642 -15.38955503 5.69268882 -12.91137695 5.65942383 C-12.18129425 5.66804947 -11.45121155 5.67667511 -10.69900513 5.68556213 C-6.66942291 5.5949715 -5.12877799 5.10928592 -2.00553894 2.45878601 C-1.34371109 1.64738663 -0.68188324 0.83598724 0 0 Z " fill="#622515" transform="translate(119,162)"/>
<path d="M0 0 C0.33 0 0.66 0 1 0 C1 7.92 1 15.84 1 24 C1.66 24 2.32 24 3 24 C3.0463682 31.36276592 3.08189196 38.72550029 3.10362434 46.08838272 C3.11405552 49.50737928 3.12820243 52.92627584 3.15087891 56.34521484 C3.17679333 60.277006 3.18647832 64.20875685 3.1953125 68.140625 C3.20563507 69.36678528 3.21595764 70.59294556 3.22659302 71.85626221 C3.22674408 72.99714294 3.22689514 74.13802368 3.22705078 75.31347656 C3.231492 76.31719299 3.23593323 77.32090942 3.24050903 78.3550415 C2.99483677 81.05678178 2.3835511 82.6918686 1 85 C0.34 85 -0.32 85 -1 85 C-1.33 85.99 -1.66 86.98 -2 88 C-2.66 88 -3.32 88 -4 88 C-4.10890351 74.62329823 -4.09848966 61.33880305 -3 48 C-2.01 48 -1.02 48 0 48 C0 32.16 0 16.32 0 0 Z " fill="#BB3417" transform="translate(116,80)"/>
<path d="M0 0 C1.65 0 3.3 0 5 0 C5.04635203 8.27546642 5.08188373 16.55087855 5.10362434 24.82644272 C5.11405904 28.66917254 5.12821245 32.5118135 5.15087891 36.35449219 C5.17261857 40.06328453 5.18457099 43.77199144 5.18975449 47.48084259 C5.19344823 48.89542231 5.2006612 50.30999739 5.21146011 51.72454071 C5.2259891 53.70661352 5.22681704 55.6887724 5.22705078 57.67089844 C5.231492 58.79896912 5.23593323 59.92703979 5.24050903 61.08929443 C5.00492425 63.9404054 4.48261061 65.58701141 3 68 C2.34 68 1.68 68 1 68 C1 68.66 1 69.32 1 70 C0.34 69.67 -0.32 69.34 -1 69 C-0.67 46.23 -0.34 23.46 0 0 Z " fill="#BE4A2C" transform="translate(125,108)"/>
<path d="M0 0 C0.33 0.66 0.66 1.32 1 2 C1.66 2 2.32 2 3 2 C3 2.66 3 3.32 3 4 C3.66 4 4.32 4 5 4 C5 23.8 5 43.6 5 64 C3.35 64 1.7 64 0 64 C0 42.88 0 21.76 0 0 Z " fill="#E6815F" transform="translate(125,44)"/>
<path d="M0 0 C3.85080621 -0.45842931 5.74464493 -0.14083612 9.17431641 1.75073242 C11.31277338 3.64394205 11.94161735 4.71631862 12.52313232 7.54190063 C12.69631411 10.81084906 12.6736488 14.02835127 12.5859375 17.30078125 C12.57744781 18.49229294 12.56895813 19.68380463 12.56021118 20.91142273 C12.52665574 24.712706 12.45136342 28.51185914 12.375 32.3125 C12.34490358 34.89124538 12.31752723 37.47002405 12.29296875 40.04882812 C12.22685685 46.36661077 12.12648321 52.68315321 12 59 C10.68 59 9.36 59 8 59 C7.67 60.32 7.34 61.64 7 63 C6.99413376 62.30953079 6.98826752 61.61906158 6.98222351 60.90766907 C6.9182892 53.7211349 6.83386877 46.53504852 6.73754883 39.34887695 C6.70264989 36.66693399 6.6750113 33.98506199 6.65356445 31.30297852 C6.62002854 27.44777567 6.56771073 23.59321525 6.51171875 19.73828125 C6.50532883 18.53915604 6.4989389 17.34003082 6.49235535 16.10456848 C6.46266411 14.4233918 6.46266411 14.4233918 6.43237305 12.70825195 C6.42126999 11.72452103 6.41016693 10.7407901 6.39872742 9.72724915 C5.92613462 6.49476943 4.92178394 4.6251836 3 2 C2.01 1.34 1.02 0.68 0 0 Z " fill="#883C27" transform="translate(112,49)"/>
<path d="M0 0 C1.12138618 0.01061211 1.12138618 0.01061211 2.26542664 0.0214386 C4.64023277 0.0493048 7.01263226 0.11201993 9.38671875 0.17578125 C11.00191893 0.20087457 12.61715629 0.22368594 14.23242188 0.24414062 C18.18060694 0.29910478 22.12700564 0.38531598 26.07421875 0.48828125 C26.07421875 2.82161458 26.07421875 5.15494792 26.07421875 7.48828125 C25.15084717 7.45275146 24.22747559 7.41722168 23.27612305 7.38061523 C19.8490116 7.25136763 16.42179489 7.12706201 12.99438477 7.00610352 C11.51123926 6.95274596 10.02816314 6.89742152 8.54516602 6.84008789 C6.41307538 6.75800204 4.28083496 6.68300124 2.1484375 6.609375 C0.86541748 6.56224365 -0.41760254 6.5151123 -1.73950195 6.46655273 C-4.94900857 6.32393974 -4.94900857 6.32393974 -7.92578125 7.48828125 C-9.24578125 7.48828125 -10.56578125 7.48828125 -11.92578125 7.48828125 C-11.92578125 8.47828125 -11.92578125 9.46828125 -11.92578125 10.48828125 C-12.58578125 10.48828125 -13.24578125 10.48828125 -13.92578125 10.48828125 C-13.63752504 7.12529218 -12.96594054 5.53996505 -10.87036133 2.84301758 C-7.20115161 -0.09119416 -4.49499787 -0.1615817 0 0 Z " fill="#C84B24" transform="translate(13.92578125,48.51171875)"/>
<path d="M0 0 C24.75 0 49.5 0 75 0 C75 0.33 75 0.66 75 1 C67.10852476 1.80104027 59.23788468 2.26645073 51.3125 2.5625 C50.21744141 2.60568359 49.12238281 2.64886719 47.99414062 2.69335938 C45.32951403 2.79808269 42.66481689 2.90025779 40 3 C40 3.33 40 3.66 40 4 C35.33712319 4.16748075 30.67407963 4.32805376 26.01074219 4.48217773 C24.42376271 4.53560756 22.83684605 4.59093771 21.25 4.64819336 C18.97149196 4.73007724 16.69284678 4.80516524 14.4140625 4.87890625 C13.34679428 4.91945885 13.34679428 4.91945885 12.25796509 4.96083069 C7.22774341 5.11387171 7.22774341 5.11387171 5 4 C4.67 4.99 4.34 5.98 4 7 C2.35 5.68 0.7 4.36 -1 3 C-0.67 2.01 -0.34 1.02 0 0 Z " fill="#8F3721" transform="translate(40,173)"/>
<path d="M0 0 C1.12563103 0.00212242 1.12563103 0.00212242 2.27400208 0.00428772 C4.66838585 0.00988065 7.06267578 0.02243181 9.45703125 0.03515625 C11.08137886 0.04017217 12.70572793 0.04473491 14.33007812 0.04882812 C18.30993194 0.05984777 22.28971569 0.07710752 26.26953125 0.09765625 C26.26953125 0.42765625 26.26953125 0.75765625 26.26953125 1.09765625 C25.70145752 1.16758789 25.13338379 1.23751953 24.5480957 1.30957031 C13.43214838 2.70735041 2.83762847 4.23510495 -7.73046875 8.09765625 C-7.85421875 7.45828125 -7.97796875 6.81890625 -8.10546875 6.16015625 C-8.41484375 5.13921875 -8.41484375 5.13921875 -8.73046875 4.09765625 C-9.39046875 3.76765625 -10.05046875 3.43765625 -10.73046875 3.09765625 C-10.73046875 2.43765625 -10.73046875 1.77765625 -10.73046875 1.09765625 C-7.09813773 -0.11312076 -3.77924888 -0.02678539 0 0 Z " fill="#FAF9F6" transform="translate(90.73046875,-0.09765625)"/>
<path d="M0 0 C0 0.66 0 1.32 0 2 C-0.969375 2.4125 -1.93875 2.825 -2.9375 3.25 C-3.948125 3.8275 -4.95875 4.405 -6 5 C-6.33 6.32 -6.66 7.64 -7 9 C-21.52 9 -36.04 9 -51 9 C-51 8.67 -51 8.34 -51 8 C-50.13387085 7.97812622 -50.13387085 7.97812622 -49.25024414 7.95581055 C-25.94311907 7.40908795 -25.94311907 7.40908795 -3.78515625 0.76953125 C-2 0 -2 0 0 0 Z " fill="#F7E5DF" transform="translate(168,208)"/>
<path d="M0 0 C1.46499304 0.00325221 2.93007883 0.03455623 4.39411926 0.08747864 C5.59446556 0.10101379 5.59446556 0.10101379 6.81906128 0.11482239 C9.46591914 0.15061215 12.11056015 0.22205276 14.75666809 0.29377747 C16.59080398 0.32553797 18.4249796 0.35507574 20.25918579 0.38247681 C25.08817541 0.4606031 29.91603422 0.56896225 34.74427795 0.68354797 C39.67060716 0.79513488 44.5974069 0.87823137 49.52424622 0.96369934 C59.19223963 1.1356283 68.85927784 1.33948815 78.52619934 1.56330872 C78.52619934 1.89330872 78.52619934 2.22330872 78.52619934 2.56330872 C52.12619934 2.56330872 25.72619934 2.56330872 -1.47380066 2.56330872 C-1.80380066 3.22330872 -2.13380066 3.88330872 -2.47380066 4.56330872 C-4.53630066 5.18830872 -4.53630066 5.18830872 -6.47380066 5.56330872 C-4.88400989 1.66826479 -4.26010175 0.69081467 0 0 Z " fill="#DB6644" transform="translate(41.47380065917969,41.43669128417969)"/>
<path d="M0 0 C5.625 -0.25 5.625 -0.25 9 2 C9.32279968 4.55630493 9.32279968 4.55630493 9.2487793 7.82666016 C9.22853195 9.04777496 9.20828461 10.26888977 9.18742371 11.52700806 C9.15001125 12.8643686 9.11226843 14.20171994 9.07421875 15.5390625 C9.04619021 16.90381263 9.01949931 18.26859084 8.99409485 19.63339233 C8.9235885 23.22752405 8.83487985 26.82098647 8.74243164 30.41461182 C8.65131946 34.08086478 8.57734819 37.74745861 8.50195312 41.4140625 C8.35145215 48.60981987 8.18172866 55.8049564 8 63 C7.67 63 7.34 63 7 63 C6.99413376 62.30953079 6.98826752 61.61906158 6.98222351 60.90766907 C6.9182892 53.7211349 6.83386877 46.53504852 6.73754883 39.34887695 C6.70264989 36.66693399 6.6750113 33.98506199 6.65356445 31.30297852 C6.62002854 27.44777567 6.56771073 23.59321525 6.51171875 19.73828125 C6.50532883 18.53915604 6.4989389 17.34003082 6.49235535 16.10456848 C6.46266411 14.4233918 6.46266411 14.4233918 6.43237305 12.70825195 C6.42126999 11.72452103 6.41016693 10.7407901 6.39872742 9.72724915 C5.92613462 6.49476943 4.92178394 4.6251836 3 2 C2.01 1.34 1.02 0.68 0 0 Z " fill="#953C22" transform="translate(112,49)"/>
<path d="M0 0 C0.66 0 1.32 0 2 0 C2 1.65 2 3.3 2 5 C2.99 5 3.98 5 5 5 C5 4.34 5 3.68 5 3 C7.64 3 10.28 3 13 3 C13 3.99 13 4.98 13 6 C18.28 6 23.56 6 29 6 C29 6.33 29 6.66 29 7 C24.56271849 7.11586755 20.12582409 7.18714058 15.6875 7.25 C14.42486328 7.28351563 13.16222656 7.31703125 11.86132812 7.3515625 C10.04858398 7.37089844 10.04858398 7.37089844 8.19921875 7.390625 C6.52605591 7.4220459 6.52605591 7.4220459 4.8190918 7.45410156 C2 7 2 7 0.05004883 5.16308594 C-1 3 -1 3 0 0 Z " fill="#BB3619" transform="translate(3,160)"/>
<path d="M0 0 C0.66 0.66 1.32 1.32 2 2 C-4.3380187 3.57151693 -9.56776019 4.40339778 -16 3 C-16.33 2.34 -16.66 1.68 -17 1 C-11.19517788 -1.14526035 -6.07504913 -1.37715922 0 0 Z " fill="#EE7151" transform="translate(110,3)"/>
<path d="M0 0 C6.6 0 13.2 0 20 0 C20 0.66 20 1.32 20 2 C20.99 2.33 21.98 2.66 23 3 C23.33 3.66 23.66 4.32 24 5 C18.44686304 4.35588614 12.98744364 3.49942196 7.5 2.4375 C6.77296875 2.29892578 6.0459375 2.16035156 5.296875 2.01757812 C3.53081963 1.68063335 1.76534574 1.34064317 0 1 C0 0.67 0 0.34 0 0 Z " fill="#FAF6EF" transform="translate(136,0)"/>
<path d="M0 0 C1.65 0 3.3 0 5 0 C5 0.66 5 1.32 5 2 C5.886875 1.835 6.77375 1.67 7.6875 1.5 C10.53596892 1.07004243 13.13004802 0.91558965 16 1 C15.67 1.99 15.34 2.98 15 4 C11.35258418 5.7812961 9.5928346 6.15369786 5.625 5.125 C4.75875 4.75375 3.8925 4.3825 3 4 C3 3.34 3 2.68 3 2 C2.01 1.34 1.02 0.68 0 0 Z " fill="#C94C2A" transform="translate(64,72)"/>
<path d="M0 0 C8.91 0 17.82 0 27 0 C27 0.33 27 0.66 27 1 C24.27123692 1.33695862 21.54206837 1.66968429 18.8125 2 C18.04357422 2.09539062 17.27464844 2.19078125 16.48242188 2.2890625 C12.63071189 2.75192894 8.88829149 3.12467468 5 3 C5 2.67 5 2.34 5 2 C3.35 1.67 1.7 1.34 0 1 C0 0.67 0 0.34 0 0 Z " fill="#F9ECE3" transform="translate(90,0)"/>
<path d="M0 0 C0.69287109 0.09990234 1.38574219 0.19980469 2.09960938 0.30273438 C3.79667213 0.54851588 5.49225459 0.80448152 7.1875 1.0625 C7.1875 1.7225 7.1875 2.3825 7.1875 3.0625 C2.27151197 4.02641922 -0.26332215 3.94874447 -4.8125 2.0625 C-7.50482418 1.8860368 -10.10998415 1.97088929 -12.8125 2.0625 C-12.8125 1.4025 -12.8125 0.7425 -12.8125 0.0625 C-8.38499834 -1.16688396 -4.46430393 -0.68780185 0 0 Z " fill="#DB5738" transform="translate(148.8125,209.9375)"/>
<path d="M0 0 C1.20366211 0.14501953 1.20366211 0.14501953 2.43164062 0.29296875 C3.26501953 0.40511719 4.09839844 0.51726562 4.95703125 0.6328125 C5.80201172 0.73722656 6.64699219 0.84164062 7.51757812 0.94921875 C9.602874 1.20840807 11.68640061 1.48176053 13.76953125 1.7578125 C13.76953125 2.0878125 13.76953125 2.4178125 13.76953125 2.7578125 C6.31885824 3.80600604 0.05862105 3.67100093 -7.23046875 1.7578125 C-3.98693619 -0.40454254 -3.61102394 -0.46098178 0 0 Z " fill="#D65B3D" transform="translate(105.23046875,212.2421875)"/>
<path d="M0 0 C-0.625 1.9375 -0.625 1.9375 -2 4 C-5.125 4.75 -5.125 4.75 -8 5 C-7.8125 3.125 -7.8125 3.125 -7 1 C-2.66666667 -1.33333333 -2.66666667 -1.33333333 0 0 Z " fill="#ED7657" transform="translate(88,7)"/>
<path d="M0 0 C0.33 1.32 0.66 2.64 1 4 C1.66 4 2.32 4 3 4 C3 4.66 3 5.32 3 6 C2.01 6 1.02 6 0 6 C0 6.99 0 7.98 0 9 C-0.66 9 -1.32 9 -2 9 C-2 9.99 -2 10.98 -2 12 C-2.66 11.67 -3.32 11.34 -4 11 C-2.68 7.37 -1.36 3.74 0 0 Z " fill="#F6E7DD" transform="translate(228,140)"/>
<path d="M0 0 C0.33 0 0.66 0 1 0 C1.0809723 2.43816585 1.14046972 4.87364384 1.1875 7.3125 C1.22520508 8.34793945 1.22520508 8.34793945 1.26367188 9.40429688 C1.29296875 11.42578125 1.29296875 11.42578125 1 15 C0.01 15.99 -0.98 16.98 -2 18 C-1.34 12.06 -0.68 6.12 0 0 Z " fill="#F9EBE2" transform="translate(232,118)"/>
<path d="M0 0 C1.485 0.99 1.485 0.99 3 2 C3.29296875 5.2578125 3.29296875 5.2578125 3.1875 9.125 C3.16042969 10.40632813 3.13335937 11.68765625 3.10546875 13.0078125 C3.07066406 13.99523437 3.03585938 14.98265625 3 16 C2.67 16 2.34 16 2 16 C1.66104344 14.27192682 1.32908475 12.54248026 1 10.8125 C0.814375 9.84957031 0.62875 8.88664062 0.4375 7.89453125 C0.03122388 5.2065794 -0.07933572 2.71228981 0 0 Z " fill="#FEF6F0" transform="translate(230,80)"/>
<path d="M0 0 C1.98 0 3.96 0 6 0 C2.80331012 2.6486859 -0.39486597 4.93992341 -4 7 C-4 5.68 -4 4.36 -4 3 C-2.68 2.34 -1.36 1.68 0 1 C0 0.67 0 0.34 0 0 Z " fill="#FCEEE7" transform="translate(64,14)"/>
<path d="M0 0 C0 0.66 0 1.32 0 2 C-1.28650706 2.69710731 -2.57940665 3.38242876 -3.875 4.0625 C-4.95394531 4.63677734 -4.95394531 4.63677734 -6.0546875 5.22265625 C-6.69664062 5.47917969 -7.33859375 5.73570312 -8 6 C-8.66 5.67 -9.32 5.34 -10 5 C-10 4.34 -10 3.68 -10 3 C-8.70990357 2.49596232 -7.41786211 1.99690074 -6.125 1.5 C-5.04605469 1.08234375 -5.04605469 1.08234375 -3.9453125 0.65625 C-2 0 -2 0 0 0 Z " fill="#F3EDE2" transform="translate(168,208)"/>
<path d="M0 0 C0.33 0 0.66 0 1 0 C3.42857143 8.42857143 3.42857143 8.42857143 2 13 C-0.20914 9.68629 -0.22481553 8.6553979 -0.125 4.8125 C-0.10695312 3.91144531 -0.08890625 3.01039062 -0.0703125 2.08203125 C-0.04710937 1.39496094 -0.02390625 0.70789063 0 0 Z " fill="#F79A80" transform="translate(229,80)"/>
<path d="M0 0 C4 4.625 4 4.625 4 8 C2.68 8.33 1.36 8.66 0 9 C0 6.03 0 3.06 0 0 Z " fill="#F4E3D8" transform="translate(0,160)"/>
<path d="M0 0 C1.875 0.1875 1.875 0.1875 4 1 C5.25 3.5625 5.25 3.5625 6 6 C4.02 5.34 2.04 4.68 0 4 C0 2.68 0 1.36 0 0 Z " fill="#C44526" transform="translate(112,50)"/>
<path d="M0 0 C0.99 0.33 1.98 0.66 3 1 C2.34 2.32 1.68 3.64 1 5 C0.34 5 -0.32 5 -1 5 C-1.33 5.99 -1.66 6.98 -2 8 C-2.66 8 -3.32 8 -4 8 C-4 6.68 -4 5.36 -4 4 C-2.68 4 -1.36 4 0 4 C0 2.68 0 1.36 0 0 Z " fill="#A72F18" transform="translate(116,160)"/>
<path d="M0 0 C0.33 0 0.66 0 1 0 C1 1.65 1 3.3 1 5 C-0.98 5.99 -0.98 5.99 -3 7 C-3 5.68 -3 4.36 -3 3 C-2.34 3 -1.68 3 -1 3 C-0.67 2.01 -0.34 1.02 0 0 Z " fill="#F9F6F2" transform="translate(232,133)"/>
<path d="M0 0 C0.99 0 1.98 0 3 0 C3.33 0.99 3.66 1.98 4 3 C2.68 3 1.36 3 0 3 C0 3.99 0 4.98 0 6 C-0.66 6 -1.32 6 -2 6 C-1.125 1.125 -1.125 1.125 0 0 Z " fill="#CD4E2A" transform="translate(2,53)"/>
<path d="M0 0 C0.99 0.33 1.98 0.66 3 1 C3 1.66 3 2.32 3 3 C-2.75 4.125 -2.75 4.125 -5 3 C-2.6875 1.4375 -2.6875 1.4375 0 0 Z " fill="#ED7459" transform="translate(67,16)"/>
</svg>
